<svg version="1.1" id="Layer_1" xmlns="http://www.w3.org/2000/svg" xmlns:xlink="http://www.w3.org/1999/xlink" x="0px"
    y="0px" width="100%" viewBox="0 0 661 627" enable-background="new 0 0 661 627" xml:space="preserve">
    <path fill="#1D2221" opacity="1.000000" stroke="none" d="
M1.000000,169.000000 
	C1.000000,112.677498 1.000000,56.854992 1.000000,1.016244 
	C221.279770,1.016244 441.559540,1.016244 661.919678,1.016244 
	C661.919678,209.905884 661.919678,418.811798 661.919678,627.858887 
	C441.666718,627.858887 221.333374,627.858887 1.000000,627.858887 
	C1.000000,475.107056 1.000000,322.303528 1.000000,169.000000 
M647.002686,158.500000 
	C647.002686,111.407608 647.002686,64.315216 647.002686,17.367266 
	C435.198730,17.367266 223.992523,17.367266 12.888882,17.367266 
	C12.888882,215.190079 12.888882,412.642792 12.888882,610.283325 
	C224.344864,610.283325 435.561432,610.283325 647.002686,610.283325 
	C647.002686,459.802979 647.002686,309.651489 647.002686,158.500000 
z" />
    <path fill="#FCFCFC" opacity="1.000000" stroke="none" d="
M647.002686,159.000000 
	C647.002686,309.651489 647.002686,459.802979 647.002686,610.283325 
	C435.561432,610.283325 224.344864,610.283325 12.888882,610.283325 
	C12.888882,412.642792 12.888882,215.190079 12.888882,17.367266 
	C223.992523,17.367266 435.198730,17.367266 647.002686,17.367266 
	C647.002686,64.315216 647.002686,111.407608 647.002686,159.000000 
M622.117249,56.503685 
	C622.117249,51.744755 622.117249,46.985821 622.117249,42.271072 
	C427.082825,42.271072 232.673752,42.271072 38.250641,42.271072 
	C38.250641,223.454483 38.250641,404.371521 38.250641,585.191711 
	C232.941376,585.191711 427.353180,585.191711 622.117249,585.191711 
	C622.117249,409.100128 622.117249,233.301529 622.117249,56.503685 
z" />
    <path fill="#1D2221" opacity="1.000000" stroke="none" d="
M622.117249,57.003311 
	C622.117249,233.301529 622.117249,409.100128 622.117249,585.191711 
	C427.353180,585.191711 232.941376,585.191711 38.250641,585.191711 
	C38.250641,404.371521 38.250641,223.454483 38.250641,42.271072 
	C232.673752,42.271072 427.082825,42.271072 622.117249,42.271072 
	C622.117249,46.985821 622.117249,51.744755 622.117249,57.003311 
M338.975861,395.395264 
	C339.796417,381.436890 341.278900,367.480743 341.326233,353.519745 
	C341.567535,282.356537 341.437836,211.192123 341.437988,140.028137 
	C341.437988,138.278625 341.437988,136.529099 341.437988,134.913086 
	C314.730713,134.913086 288.816071,134.913086 262.522766,134.913086 
	C262.522766,137.297745 262.522766,139.273834 262.522766,141.249939 
	C262.522766,209.580704 262.653809,277.911896 262.426056,346.241913 
	C262.372437,362.337067 263.268372,378.592438 258.876190,394.405334 
	C255.083832,408.058716 247.949387,419.199982 234.165222,424.357208 
	C222.831924,428.597412 211.136734,428.464661 199.377701,425.360138 
	C187.269211,422.163422 178.877396,414.632599 173.332840,403.784698 
	C168.112671,393.571442 165.969162,382.464172 164.999023,371.123260 
	C164.406311,364.194733 163.980087,357.251892 163.474442,350.251099 
	C137.256409,350.251099 111.648224,350.251099 85.874794,350.251099 
	C85.710060,351.238831 85.468338,352.035980 85.459686,352.835632 
	C85.255577,371.698975 86.449493,390.371979 91.683800,408.669128 
	C106.265907,459.642761 144.616211,478.843933 183.049561,484.002228 
	C196.825897,485.851196 210.935745,485.837921 224.880356,485.659180 
	C244.133621,485.412384 262.863800,481.646362 280.584808,473.889465 
	C314.580811,459.008575 333.257965,432.527740 338.975861,395.395264 
M506.826843,457.435089 
	C529.995056,443.967438 537.148315,423.439392 533.391174,401.945709 
	C528.958191,376.586090 506.716064,355.430817 473.727570,360.401459 
	C453.028931,363.520264 439.069336,376.423584 433.129700,396.416443 
	C427.156372,416.522644 431.617798,434.935852 447.294586,449.307770 
	C464.721680,465.284241 484.816803,466.958954 506.826843,457.435089 
M569.522705,147.203613 
	C569.522705,139.237976 569.522705,131.272339 569.522705,123.122772 
	C511.381104,123.122772 453.689087,123.122772 395.899292,123.122772 
	C395.899292,132.503204 395.899292,141.591370 395.899292,151.168304 
	C397.881714,151.168304 399.666229,151.168304 401.450745,151.168304 
	C443.425476,151.168304 485.400208,151.168320 527.374939,151.168304 
	C540.033997,151.168304 552.692993,151.166977 565.352051,151.169464 
	C567.480286,151.169891 569.983459,151.703278 569.522705,147.203613 
z" />
    <path fill="#FDFDFD" opacity="1.000000" stroke="none" d="
M338.871368,395.817749 
	C333.257965,432.527740 314.580811,459.008575 280.584808,473.889465 
	C262.863800,481.646362 244.133621,485.412384 224.880356,485.659180 
	C210.935745,485.837921 196.825897,485.851196 183.049561,484.002228 
	C144.616211,478.843933 106.265907,459.642761 91.683800,408.669128 
	C86.449493,390.371979 85.255577,371.698975 85.459686,352.835632 
	C85.468338,352.035980 85.710060,351.238831 85.874794,350.251099 
	C111.648224,350.251099 137.256409,350.251099 163.474442,350.251099 
	C163.980087,357.251892 164.406311,364.194733 164.999023,371.123260 
	C165.969162,382.464172 168.112671,393.571442 173.332840,403.784698 
	C178.877396,414.632599 187.269211,422.163422 199.377701,425.360138 
	C211.136734,428.464661 222.831924,428.597412 234.165222,424.357208 
	C247.949387,419.199982 255.083832,408.058716 258.876190,394.405334 
	C263.268372,378.592438 262.372437,362.337067 262.426056,346.241913 
	C262.653809,277.911896 262.522766,209.580704 262.522766,141.249939 
	C262.522766,139.273834 262.522766,137.297745 262.522766,134.913086 
	C288.816071,134.913086 314.730713,134.913086 341.437988,134.913086 
	C341.437988,136.529099 341.437988,138.278625 341.437988,140.028137 
	C341.437836,211.192123 341.567535,282.356537 341.326233,353.519745 
	C341.278900,367.480743 339.796417,381.436890 338.871368,395.817749 
z" />
    <path fill="#FEFEFE" opacity="1.000000" stroke="none" d="
M506.502655,457.624939 
	C484.816803,466.958954 464.721680,465.284241 447.294586,449.307770 
	C431.617798,434.935852 427.156372,416.522644 433.129700,396.416443 
	C439.069336,376.423584 453.028931,363.520264 473.727570,360.401459 
	C506.716064,355.430817 528.958191,376.586090 533.391174,401.945709 
	C537.148315,423.439392 529.995056,443.967438 506.502655,457.624939 
z" />
    <path fill="#FEFEFE" opacity="1.000000" stroke="none" d="
M569.522034,147.673203 
	C569.983459,151.703278 567.480286,151.169891 565.352051,151.169464 
	C552.692993,151.166977 540.033997,151.168304 527.374939,151.168304 
	C485.400208,151.168320 443.425476,151.168304 401.450745,151.168304 
	C399.666229,151.168304 397.881714,151.168304 395.899292,151.168304 
	C395.899292,141.591370 395.899292,132.503204 395.899292,123.122772 
	C453.689087,123.122772 511.381104,123.122772 569.522705,123.122772 
	C569.522705,131.272339 569.522705,139.237976 569.522034,147.673203 
z" />
</svg>